<!--?xml version="1.0" encoding="utf-8"?-->
<!-- Generator: Adobe Illustrator 19.1.1, SVG Export Plug-In . SVG Version: 6.00 Build 0)  -->
<svg version="1.1" id="_x31_0" xmlns="http://www.w3.org/2000/svg" xmlns:xlink="http://www.w3.org/1999/xlink" x="0px" y="0px" viewBox="0 0 512 512" style="width: 48px; height: 48px; opacity: 1;" xml:space="preserve">
<style type="text/css">
	.st0{fill:#374149;}
</style>
<g>
	<polygon class="st0" points="208.558,279.5 256,298.965 303.438,279.5 347.523,261.371 422.488,230.602 422.488,204.246 
		422.547,194.5 422.488,194.524 422.488,194.352 303.438,243.25 259.242,261.371 256,262.715 252.754,261.371 208.558,243.25 
		122.328,207.832 89.668,194.352 89.668,194.418 89.508,194.352 89.508,230.602 164.473,261.371 	" style="fill: rgb(0, 0, 0);"></polygon>
	<path class="st0" d="M63.664,480.781h384.668c35.133,0,63.668-28.527,63.668-63.664V94.996c0-35.133-28.535-63.778-63.668-63.778
		H63.664C28.527,31.219,0,59.864,0,94.996v322.121C0,452.254,28.527,480.781,63.664,480.781z M55.942,94.996
		c0-4.254,3.469-7.832,7.722-7.832h384.668c4.254,0,7.722,3.578,7.722,7.832v322.121c0,4.258-3.469,7.718-7.722,7.718H63.664
		c-4.254,0-7.722-3.461-7.722-7.718V94.996z" style="fill: rgb(0, 0, 0);"></path>
</g>
</svg>
